<?xml version="1.0" standalone="no"?>
<!DOCTYPE svg PUBLIC "-//W3C//DTD SVG 20010904//EN"
 "http://www.w3.org/TR/2001/REC-SVG-20010904/DTD/svg10.dtd">
<svg version="1.0" xmlns="http://www.w3.org/2000/svg"
 width="599.000000pt" height="599.000000pt" viewBox="0 0 599.000000 599.000000"
 preserveAspectRatio="xMidYMid meet">

<g transform="translate(0.000000,599.000000) scale(0.100000,-0.100000)"
fill="#1976D2" stroke="none">
<path d="M1935 5978 c-2 -7 -13 -78 -25 -158 -20 -138 -21 -188 -21 -1041 l0
-896 -70 -48 c-286 -195 -534 -475 -688 -774 -104 -203 -183 -447 -215 -671
-13 -91 -14 -78 -15 292 -1 341 1 387 14 382 11 -5 15 1 15 20 0 15 -7 29 -15
32 -13 5 -15 45 -15 276 0 236 2 269 15 264 11 -4 15 2 15 20 0 13 -7 27 -15
30 -13 5 -15 42 -15 246 0 213 2 239 15 228 13 -11 15 -8 15 19 0 19 -6 34
-15 37 -13 5 -15 43 -15 253 l0 246 -92 473 c-51 259 -95 472 -98 472 -3 0
-47 -213 -98 -472 l-92 -473 0 -246 c0 -207 -2 -249 -15 -259 -20 -17 -20 -54
0 -46 23 8 23 -458 0 -480 -20 -20 -20 -55 0 -48 13 5 15 -28 15 -265 0 -232
-2 -272 -15 -277 -8 -4 -15 -17 -15 -31 0 -18 4 -24 15 -19 13 5 15 -169 15
-1529 l0 -1535 1065 0 1065 0 0 153 c1 684 5 862 24 913 40 113 140 198 264
225 64 15 149 2 218 -32 57 -29 129 -105 157 -167 22 -46 22 -57 25 -569 l3
-523 1027 0 1027 0 -2 2508 -2 2507 -71 475 c-39 261 -72 480 -74 485 -6 18
-15 -34 -86 -515 l-71 -475 -1 -1345 c0 -1179 -2 -1333 -14 -1250 -89 621
-457 1179 -990 1501 l-82 49 -1 348 -1 347 -65 440 c-36 242 -67 445 -69 450
-6 17 -13 -26 -77 -455 l-61 -415 1 -258 c2 -179 -2 -268 -10 -291 l-12 -33
-91 29 c-125 39 -318 77 -437 84 l-99 7 48 22 c40 19 118 92 109 102 -2 1 -25
-9 -52 -22 -189 -96 -402 94 -328 293 12 31 -27 -8 -47 -48 -57 -111 -16 -252
90 -312 22 -13 40 -26 40 -30 0 -5 -30 -8 -66 -8 -136 0 -402 -52 -566 -110
l-78 -27 0 169 c0 110 3 167 10 163 6 -4 10 6 10 24 0 16 -4 33 -10 36 -6 4
-10 112 -10 291 0 188 3 283 10 279 6 -4 10 8 10 29 0 20 -5 36 -10 36 -7 0
-10 105 -9 323 1 306 -7 424 -37 565 -4 21 -8 22 -130 22 -91 0 -126 -3 -129
-12z"/>
</g>
</svg>
